<?xml version="1.0" encoding="UTF-8" standalone="no"?>
<!-- Created with Inkscape (http://www.inkscape.org/) -->

<svg
   width="360"
   height="800"
   viewBox="0 0 95.2499 211.667"
   version="1.1"
   id="svg5"
   inkscape:version="1.2.2 (b0a8486541, 2022-12-01)"
   sodipodi:docname="mockup.svg"
   xml:space="preserve"
   xmlns:inkscape="http://www.inkscape.org/namespaces/inkscape"
   xmlns:sodipodi="http://sodipodi.sourceforge.net/DTD/sodipodi-0.dtd"
   xmlns:xlink="http://www.w3.org/1999/xlink"
   xmlns="http://www.w3.org/2000/svg"
   xmlns:svg="http://www.w3.org/2000/svg"><sodipodi:namedview
     id="namedview7"
     pagecolor="#ffffff"
     bordercolor="#666666"
     borderopacity="1.0"
     inkscape:showpageshadow="2"
     inkscape:pageopacity="0.0"
     inkscape:pagecheckerboard="0"
     inkscape:deskcolor="#d1d1d1"
     inkscape:document-units="mm"
     showgrid="false"
     inkscape:zoom="1.1893"
     inkscape:cx="-54.6538"
     inkscape:cy="395.189"
     inkscape:window-width="1920"
     inkscape:window-height="1011"
     inkscape:window-x="0"
     inkscape:window-y="32"
     inkscape:window-maximized="1"
     inkscape:current-layer="layer1" /><defs
     id="defs2" /><g
     inkscape:label="Layer 1"
     inkscape:groupmode="layer"
     id="layer1"><rect
       style="fill:#333333;stroke-width:1.6023;paint-order:stroke markers fill"
       id="rect306"
       width="95.2507"
       height="21.1667"
       x="-0.00038"
       y="0" /><text
       xml:space="preserve"
       style="font-style:normal;font-weight:normal;font-size:8.46668px;line-height:1.25;font-family:sans-serif;letter-spacing:0px;word-spacing:0px;fill:#000000;fill-opacity:1;stroke:none;stroke-width:0.264584"
       x="2.30615"
       y="32.1995"
       id="text470"><tspan
         sodipodi:role="line"
         id="tspan468"
         style="font-size:8.46668px;stroke-width:0.264584"
         x="2.30615"
         y="32.1995"><tspan
   style="fill:#666666"
   id="tspan524">Party /</tspan> Players</tspan></text><rect
       style="fill:#ff7f2a;stroke-width:3.06012;paint-order:stroke markers fill"
       id="rect578"
       width="29.16"
       height="5.2079"
       x="63.6358"
       y="26.3758"
       ry="1.8768" /><text
       xml:space="preserve"
       style="font-style:normal;font-weight:normal;font-size:4.9389px;line-height:1.25;font-family:sans-serif;letter-spacing:0px;word-spacing:0px;fill:#000000;fill-opacity:1;stroke:none;stroke-width:0.264584"
       x="64.4797"
       y="30.7482"
       id="text822"><tspan
         sodipodi:role="line"
         id="tspan820"
         style="font-size:4.9389px;fill:#ffffff;stroke-width:0.264584"
         x="64.4797"
         y="30.7482">UNSTARTED</tspan></text><g
       id="g974"
       transform="translate(-0.70039,7.81905)"><rect
         style="fill:#cccccc;stroke-width:2.82801;paint-order:stroke markers fill"
         id="rect641"
         width="81.83"
         height="34.5629"
         x="6.70995"
         y="50.0102"
         ry="6.7333" /><rect
         style="fill:#008000;stroke-width:2.30819;paint-order:stroke markers fill"
         id="rect578-2"
         width="16.5903"
         height="5.2079"
         x="59.0922"
         y="52.5996"
         ry="1.8768" /><circle
         style="fill:#ffffff;stroke-width:3.71463;paint-order:stroke markers fill"
         id="path747"
         cx="16.3268"
         cy="59.627"
         r="7.50001" /><text
         xml:space="preserve"
         style="font-style:normal;font-weight:normal;font-size:5.64445px;line-height:1.25;font-family:sans-serif;letter-spacing:0px;word-spacing:0px;fill:#000000;fill-opacity:1;stroke:none;stroke-width:0.264584"
         x="27.4633"
         y="57.1173"
         id="text814"><tspan
           sodipodi:role="line"
           id="tspan812"
           style="font-style:normal;font-variant:normal;font-weight:bold;font-stretch:normal;font-size:5.64445px;font-family:sans-serif;-inkscape-font-specification:'sans-serif Bold';stroke-width:0.264584"
           x="27.4633"
           y="57.1173">Jean -marc</tspan></text><text
         xml:space="preserve"
         style="font-style:normal;font-weight:normal;font-size:5.64445px;line-height:1.25;font-family:sans-serif;letter-spacing:0px;word-spacing:0px;fill:#000000;fill-opacity:1;stroke:none;stroke-width:0.264584"
         x="27.4633"
         y="63.4675"
         id="text818"><tspan
           sodipodi:role="line"
           id="tspan816"
           style="font-style:normal;font-variant:normal;font-weight:normal;font-stretch:normal;font-size:5.64445px;font-family:sans-serif;-inkscape-font-specification:sans-serif;stroke-width:0.264584"
           x="27.4633"
           y="63.4675">Likes to drink shots</tspan></text><text
         xml:space="preserve"
         style="font-style:normal;font-weight:normal;font-size:5.64445px;line-height:1.25;font-family:sans-serif;letter-spacing:0px;word-spacing:0px;fill:#000000;fill-opacity:1;stroke:none;stroke-width:0.264584"
         x="18.5696"
         y="73.9537"
         id="text945-3"><tspan
           sodipodi:role="line"
           id="tspan943-6"
           style="font-style:normal;font-variant:normal;font-weight:normal;font-stretch:normal;font-size:5.64445px;font-family:sans-serif;-inkscape-font-specification:sans-serif;stroke-width:0.264584"
           x="18.5696"
           y="73.9537">kill Alex</tspan></text><text
         xml:space="preserve"
         style="font-style:normal;font-weight:normal;font-size:5.64445px;line-height:1.25;font-family:sans-serif;letter-spacing:0px;word-spacing:0px;fill:#000000;fill-opacity:1;stroke:none;stroke-width:0.264584"
         x="18.3579"
         y="81.6356"
         id="text945-3-5"><tspan
           sodipodi:role="line"
           id="tspan943-6-9"
           style="font-style:normal;font-variant:normal;font-weight:normal;font-stretch:normal;font-size:5.64445px;font-family:sans-serif;-inkscape-font-specification:sans-serif;stroke-width:0.264584"
           x="18.3579"
           y="81.6356">killed by Alex</tspan></text><g
         id="g12590"
         transform="matrix(0.110722,0,0,0.110722,9.25922,67.8842)"><g
           id="color"><g
             id="_2694"><path
               fill="#9b9b9a"
               d="m 29.8689,49.8881 c 0,0 3.8768,-0.1914 1.57,-2.9351 A 27.3514,27.3514 0 0 1 21.46,41.6161 c 0,0 -3.6038,1.0922 -0.9827,3.2489 a 44.5205,44.5205 0 0 1 9.3916,5.0231 z"
               id="path12508" /><path
               fill="#d0cfce"
               d="m 43.91,13.2107 a 25.7734,25.7734 0 0 1 -2.7051,9.5749 L 29.9145,44.6031 a 22.4062,22.4062 0 0 1 -4.52,-2.4173 L 37.2724,20.6822 a 25.7753,25.7753 0 0 1 6.4619,-7.5657"
               id="path12510" /><path
               fill="#9b9b9a"
               d="m 18.326,55.9442 a 1.99705,1.99705 0 1 0 3.522,1.8837 88.1683,88.1683 0 0 0 3.8491,-10.02 L 24.523,47.18 a 88.1637,88.1637 0 0 0 -6.197,8.7642 z"
               id="path12512" /><path
               fill="#9b9b9a"
               d="m 51.5232,44.865 c 2.6211,-2.1567 -0.9827,-3.2489 -0.9827,-3.2489 a 27.3514,27.3514 0 0 1 -9.9791,5.3369 c -2.3071,2.7437 1.57,2.9351 1.57,2.9351 a 44.5205,44.5205 0 0 1 9.3918,-5.0231 z"
               id="path12514" /><path
               fill="#d0cfce"
               d="m 29.2657,14.1165 a 25.7753,25.7753 0 0 1 6.4619,7.5657 l 11.8779,21.5036 a 22.4062,22.4062 0 0 1 -4.52,2.4173 L 31.7947,23.7856 A 25.7734,25.7734 0 0 1 29.09,14.2107"
               id="path12516" /><path
               fill="#9b9b9a"
               d="m 53.674,55.9442 a 1.99705,1.99705 0 1 1 -3.522,1.8837 88.1683,88.1683 0 0 1 -3.8491,-10.02 L 47.477,47.18 a 88.1637,88.1637 0 0 1 6.197,8.7642 z"
               id="path12518" /></g></g><g
           id="line"><g
             id="_2694-2"><g
               id="g12530"><path
                 fill="none"
                 stroke="#000000"
                 stroke-linecap="round"
                 stroke-linejoin="round"
                 stroke-width="2"
                 d="m 40.3417,46.5421 v 0 a 1.9971,1.9971 0 0 0 1.8836,3.5221"
                 id="path12522" /><path
                 fill="none"
                 stroke="#000000"
                 stroke-linecap="round"
                 stroke-linejoin="round"
                 stroke-width="2"
                 d="m 51.6174,45.0411 a 1.99702,1.99702 0 0 0 -1.8836,-3.522 v 0"
                 id="path12524" /><path
                 fill="none"
                 stroke="#000000"
                 stroke-linecap="round"
                 stroke-linejoin="round"
                 stroke-width="2"
                 d="m 51.6174,45.0411 a 22.1726,22.1726 0 0 0 -9.3921,5.0231"
                 id="path12526" /><path
                 fill="none"
                 stroke="#000000"
                 stroke-linecap="round"
                 stroke-linejoin="round"
                 stroke-width="2"
                 d="m 40.3417,46.5421 a 22.1724,22.1724 0 0 0 9.3921,-5.023"
                 id="path12528" /></g><path
               fill="none"
               stroke="#000000"
               stroke-linecap="round"
               stroke-linejoin="round"
               stroke-width="2"
               d="m 53.674,55.9442 a 1.99705,1.99705 0 1 1 -3.522,1.8837 88.1683,88.1683 0 0 1 -3.8491,-10.02 L 47.477,47.18 a 88.1637,88.1637 0 0 1 6.197,8.7642 z"
               id="path12532" /><path
               fill="none"
               stroke="#000000"
               stroke-linecap="round"
               stroke-linejoin="round"
               stroke-width="2"
               d="m 28.2657,13.1165 a 25.7753,25.7753 0 0 1 6.4619,7.5657 L 46.9194,42.7728 A 22.4041,22.4041 0 0 1 42.4,45.19 L 30.7947,22.7856 A 25.7734,25.7734 0 0 1 28.09,13.2107"
               id="path12534" /><g
               id="g12544"><path
                 fill="none"
                 stroke="#000000"
                 stroke-linecap="round"
                 stroke-linejoin="round"
                 stroke-width="2"
                 d="m 29.7747,50.0642 a 1.9971,1.9971 0 0 0 1.8836,-3.5221 v 0"
                 id="path12536" /><path
                 fill="none"
                 stroke="#000000"
                 stroke-linecap="round"
                 stroke-linejoin="round"
                 stroke-width="2"
                 d="m 22.2662,41.5191 v 0 a 1.99702,1.99702 0 1 0 -1.8836,3.522"
                 id="path12538" /><path
                 fill="none"
                 stroke="#000000"
                 stroke-linecap="round"
                 stroke-linejoin="round"
                 stroke-width="2"
                 d="M 29.7747,50.0642 A 22.1726,22.1726 0 0 0 20.3826,45.0411"
                 id="path12540" /><path
                 fill="none"
                 stroke="#000000"
                 stroke-linecap="round"
                 stroke-linejoin="round"
                 stroke-width="2"
                 d="m 22.2662,41.5191 a 22.1724,22.1724 0 0 0 9.3921,5.023"
                 id="path12542" /></g><g
               id="g12552"><path
                 fill="none"
                 stroke="#000000"
                 stroke-linecap="round"
                 stroke-linejoin="round"
                 stroke-width="2"
                 d="m 37.7047,19.9549 a 30.83,30.83 0 0 1 6.03,-6.8384"
                 id="path12546" /><path
                 fill="none"
                 stroke="#000000"
                 stroke-linecap="round"
                 stroke-linejoin="round"
                 stroke-width="2"
                 d="M 34.3432,36.0337 29.6005,45.19 a 22.4041,22.4041 0 0 1 -4.52,-2.4173 l 6.36,-11.5234"
                 id="path12548" /><path
                 fill="none"
                 stroke="#000000"
                 stroke-linecap="round"
                 stroke-linejoin="round"
                 stroke-width="2"
                 d="m 43.91,13.2107 a 25.7734,25.7734 0 0 1 -2.7051,9.5749 l -0.9124,1.7576"
                 id="path12550" /></g><path
               fill="none"
               stroke="#000000"
               stroke-linecap="round"
               stroke-linejoin="round"
               stroke-width="2"
               d="m 18.326,55.9442 a 1.99705,1.99705 0 1 0 3.522,1.8837 88.1683,88.1683 0 0 0 3.8491,-10.02 L 24.523,47.18 a 88.1637,88.1637 0 0 0 -6.197,8.7642 z"
               id="path12554" /></g></g></g><g
         id="g12693"
         transform="matrix(0.104883,0,0,0.104883,9.3739,75.2875)"><g
           id="color-3"><path
             fill="#ffffff"
             d="m 41.1835,14.216 c -1.6784,-0.5099 -3.4229,-0.7694 -5.177,-0.77 h -0.036 c -1.2518,0 -2.5,0.1334 -3.726,0.386 -4.3415,0.9348 -8.1984,3.4083 -10.859,6.964 -2.0244,2.6542 -3.3639,5.7662 -3.9,9.061 -1.0764,6.1694 0.6871,12.4953 4.8,17.218 l 0.133,0.149 c 1.055,1.19 2.5,2.82 2.5,4.554 l -0.022,4.988 c 0,0.5523 -0.4477,1 -1,1 v 0 c 2.2224,1.1344 4.5781,1.9863 7.012,2.536 3.8115,0.8585 7.7771,0.7502 11.536,-0.315 3.215,-15.177 2.366,-31.029 -1.261,-45.771 z"
             id="path12642" /><path
             fill="#d0cfce"
             d="m 48.8895,18.863 c -2.1471,-2.1598 -4.794,-3.7563 -7.706,-4.648 3.627,14.742 4.476,30.595 1.258,45.766 1.9461,-0.5441 3.8246,-1.3059 5.6,-2.271 -0.5501,0 -1.0009,-0.436 -1.014,-0.986 l -0.069,-4.943 c 0,-1.65 1.4,-3.191 2.421,-4.317 0.145,-0.159 0.283,-0.311 0.407,-0.453 7.0513,-8.1923 6.6643,-20.4171 -0.891,-28.147 z"
             id="path12644" /><path
             fill="#3f3f3f"
             d="m 27.8635,36.364 c -2.4853,0 -4.5,2.0147 -4.5,4.5 0,2.4853 2.0147,4.5 4.5,4.5 2.4853,0 4.5,-2.0147 4.5,-4.5 0,-2.4853 -2.0147,-4.5 -4.5,-4.5 z"
             id="path12646" /><path
             fill="#3f3f3f"
             d="m 44.2115,36.364 c -2.4853,0 -4.5,2.0147 -4.5,4.5 0,2.4853 2.0147,4.5 4.5,4.5 2.4853,0 4.5,-2.0147 4.5,-4.5 0,-2.4853 -2.0147,-4.5 -4.5,-4.5 z"
             id="path12648" /></g><g
           id="hair" /><g
           id="skin" /><g
           id="skin-shadow" /><g
           id="line-7"><path
             fill="none"
             stroke="#000000"
             stroke-linecap="round"
             stroke-linejoin="round"
             stroke-width="2"
             d="m 48.0235,56.664 -0.069,-4.944 c 0,-1.45 1.649,-3.035 2.58,-4.1 3.4344,-3.9474 5.3151,-9.0097 5.291,-14.242 0,-11.6 -8.894,-21.006 -19.856,-20.983 -1.3183,0 -2.6329,0.1405 -3.924,0.407 -7.89,1.618 -14.177,8.457 -15.548,16.842 -1.1269,6.4665 0.7263,13.0961 5.043,18.041 0.917,1.037 2.382,2.62 2.382,4.04 l -0.022,4.983"
             id="path12654" /><line
             x1="27.8645"
             x2="27.8645"
             y1="55.002"
             y2="59.782"
             fill="none"
             stroke="#000000"
             stroke-linecap="round"
             stroke-linejoin="round"
             stroke-width="2"
             id="line12656" /><line
             x1="33.5785"
             x2="33.5785"
             y1="56.067"
             y2="60.848"
             fill="none"
             stroke="#000000"
             stroke-linecap="round"
             stroke-linejoin="round"
             stroke-width="2"
             id="line12658" /><line
             x1="44.2125"
             x2="44.2125"
             y1="55.002"
             y2="59.782"
             fill="none"
             stroke="#000000"
             stroke-linecap="round"
             stroke-linejoin="round"
             stroke-width="2"
             id="line12660" /><line
             x1="39.0275"
             x2="39.0275"
             y1="56.067"
             y2="60.848"
             fill="none"
             stroke="#000000"
             stroke-linecap="round"
             stroke-linejoin="round"
             stroke-width="2"
             id="line12662" /><polyline
             fill="none"
             stroke="#000000"
             stroke-linecap="round"
             stroke-linejoin="round"
             stroke-width="2"
             points="33.0365,52.209 35.9685,46.36 39.4735,52.209"
             id="polyline12664" /><circle
             cx="27.8645"
             cy="40.817"
             r="5"
             fill="none"
             stroke="#000000"
             stroke-miterlimit="10"
             stroke-width="2"
             id="circle12666" /><circle
             cx="44.2125"
             cy="40.817"
             r="5"
             fill="none"
             stroke="#000000"
             stroke-miterlimit="10"
             stroke-width="2"
             id="circle12668" /></g></g><text
         xml:space="preserve"
         style="font-style:normal;font-weight:normal;font-size:4.9389px;line-height:1.25;font-family:sans-serif;letter-spacing:0px;word-spacing:0px;fill:#ffffff;fill-opacity:1;stroke:none;stroke-width:0.264584"
         x="60.7619"
         y="56.7644"
         id="text12757"><tspan
           sodipodi:role="line"
           id="tspan12755"
           style="font-size:4.9389px;fill:#ffffff;stroke-width:0.264584"
           x="60.7619"
           y="56.7644">ALIVE</tspan></text></g><use
       x="0"
       y="0"
       xlink:href="#g974"
       id="use976"
       transform="translate(0,39.2666)" /><rect
       style="fill:#cccccc;stroke-width:2.85435;paint-order:stroke markers fill"
       id="rect978"
       width="88.2709"
       height="5.29168"
       x="3.27943"
       y="44.9565"
       ry="0.842518"
       rx="0" /><text
       xml:space="preserve"
       style="font-style:normal;font-weight:normal;font-size:5.64445px;line-height:1.25;font-family:sans-serif;letter-spacing:0px;word-spacing:0px;fill:#000000;fill-opacity:1;stroke:none;stroke-width:0.264584"
       x="2.66121"
       y="43.266"
       id="text982"><tspan
         sodipodi:role="line"
         id="tspan980"
         style="font-size:5.64445px;stroke-width:0.264584"
         x="2.66121"
         y="43.266">Rechercher</tspan></text></g></svg>
