<?xml version="1.0" standalone="no"?>
<!DOCTYPE svg PUBLIC "-//W3C//DTD SVG 20010904//EN"
 "http://www.w3.org/TR/2001/REC-SVG-20010904/DTD/svg10.dtd">
<svg version="1.0" xmlns="http://www.w3.org/2000/svg"
 width="700.000000pt" height="700.000000pt" viewBox="0 0 700.000000 700.000000"
 preserveAspectRatio="xMidYMid meet">
<metadata>
Created by potrace 1.14, written by Peter Selinger 2001-2017
</metadata>
<g transform="translate(0.000000,700.000000) scale(0.100000,-0.100000)"
fill="#000000" stroke="none">
<path d="M3250 6989 c-147 -16 -200 -24 -355 -54 -296 -57 -702 -236 -994
-440 -157 -110 -402 -331 -535 -485 -389 -449 -657 -1058 -730 -1655 -27 -227
-28 -649 -1 -793 1 -9 6 -42 10 -72 4 -30 16 -100 27 -155 21 -104 21 -105 38
-170 6 -22 13 -48 15 -58 10 -43 80 -249 112 -332 34 -86 135 -295 183 -380
13 -22 28 -49 34 -60 68 -126 281 -406 439 -580 54 -59 143 -196 166 -255 l27
-68 -2 -359 c-1 -213 2 -374 8 -398 19 -75 96 -116 169 -91 21 8 36 10 33 5
-3 -5 -19 -12 -37 -17 -31 -8 -30 -9 68 -56 55 -27 145 -66 200 -89 55 -22
102 -42 104 -44 2 -1 4 -28 3 -59 -1 -67 10 -99 45 -136 69 -73 210 -30 229
69 5 26 10 33 23 28 29 -11 275 -73 334 -84 158 -30 168 -33 163 -46 -7 -20
11 -79 35 -109 37 -48 141 -58 186 -18 30 27 53 65 53 88 0 20 3 21 213 22
116 1 223 3 236 4 20 3 26 -4 38 -36 17 -49 39 -75 80 -92 45 -19 82 -17 120
6 43 26 63 59 71 116 l7 47 110 22 c92 19 267 65 313 82 6 3 12 -2 12 -11 0
-30 32 -82 66 -105 28 -19 43 -23 82 -19 90 9 135 67 131 170 -1 32 2 62 7 67
5 4 34 18 64 30 74 31 237 109 280 136 19 12 53 26 76 33 44 13 78 43 92 82 5
14 8 108 6 210 -1 102 -3 271 -4 377 l-1 191 31 64 c30 61 110 172 168 233 24
26 193 221 242 281 37 45 169 243 219 327 202 345 354 779 396 1132 4 28 8 57
10 65 26 96 26 666 0 801 -3 12 -7 44 -10 71 -3 26 -17 103 -31 171 -14 67
-28 131 -30 142 -11 58 -105 340 -139 420 -32 76 -99 220 -127 272 -36 68
-140 246 -148 253 -3 3 -26 37 -52 75 -244 364 -634 712 -1039 924 -243 128
-569 241 -789 275 -19 3 -44 8 -55 10 -12 2 -45 7 -75 11 -30 3 -68 9 -85 11
-54 8 -468 11 -535 3z m214 -267 c2 -4 -5 -9 -17 -9 -17 -2 -19 0 -7 7 18 12
18 12 24 2z m81 -10 c-3 -3 -11 0 -18 7 -9 10 -8 11 6 5 10 -3 15 -9 12 -12z
m-280 -2 c-3 -5 -18 -9 -33 -9 l-27 1 30 8 c17 4 31 8 33 9 2 0 0 -3 -3 -9z
m83 3 c-10 -2 -26 -2 -35 0 -10 3 -2 5 17 5 19 0 27 -2 18 -5z m65 0 c-7 -2
-21 -2 -30 0 -10 3 -4 5 12 5 17 0 24 -2 18 -5z m225 0 c-10 -2 -28 -2 -40 0
-13 2 -5 4 17 4 22 1 32 -1 23 -4z m49 1 c-3 -3 -12 -4 -19 -1 -8 3 -5 6 6 6
11 1 17 -2 13 -5z m125 -12 c4 -4 -16 -5 -45 -4 -29 2 -55 7 -59 10 -4 4 16 5
45 4 29 -2 55 -7 59 -10z m-639 -9 c-7 -2 -21 -2 -30 0 -10 3 -4 5 12 5 17 0
24 -2 18 -5z m711 -1 c3 -5 -8 -6 -25 -4 -16 2 -29 6 -29 8 0 8 49 4 54 -4z
m-767 -8 c-3 -3 -12 -4 -19 -1 -8 3 -5 6 6 6 11 1 17 -2 13 -5z m849 -12 c-10
-2 -22 0 -28 6 -6 6 0 7 19 4 21 -5 23 -7 9 -10z m-929 2 c-3 -3 -12 -4 -19
-1 -8 3 -5 6 6 6 11 1 17 -2 13 -5z m-82 -14 c-3 -5 -14 -10 -23 -9 -14 0 -13
2 3 9 27 11 27 11 20 0z m42 4 c-3 -3 -12 -4 -19 -1 -8 3 -5 6 6 6 11 1 17 -2
13 -5z m1026 -1 c-7 -2 -19 -2 -25 0 -7 3 -2 5 12 5 14 0 19 -2 13 -5z m61
-12 c3 -4 -6 -6 -19 -3 -14 2 -25 6 -25 8 0 8 39 4 44 -5z m-1181 -8 c-7 -2
-19 -2 -25 0 -7 3 -2 5 12 5 14 0 19 -2 13 -5z m1276 -13 c23 -6 41 -13 39
-15 -5 -6 -108 22 -117 31 -3 3 3 4 14 1 11 -3 40 -11 64 -17z m-1334 0 c-42
-17 -157 -52 -161 -48 -2 3 29 15 69 27 39 13 77 24 82 26 21 7 29 3 10 -5z
m1425 -30 c18 -12 2 -12 -25 0 -13 6 -15 9 -5 9 8 0 22 -4 30 -9z m75 -25 c39
-17 21 -18 -25 0 -19 7 -28 14 -20 14 8 0 29 -6 45 -14z m-1676 1 c-8 -8 -113
-45 -117 -42 -2 2 21 13 50 25 51 19 76 26 67 17z m1751 -31 c14 -8 21 -14 15
-14 -5 0 -21 6 -35 14 -14 8 -20 14 -15 14 6 0 21 -6 35 -14z m-1881 -19 c-10
-9 -179 -84 -179 -80 0 6 161 83 174 84 5 0 7 -2 5 -4z m1946 -6 c13 -6 15 -9
5 -9 -8 0 -22 4 -30 9 -18 12 -2 12 25 0z m74 -36 c14 -12 -19 -1 -35 12 -18
14 -18 14 6 3 14 -6 27 -13 29 -15z m36 -22 c-3 -3 -11 0 -18 7 -9 10 -8 11 6
5 10 -3 15 -9 12 -12z m49 -17 c11 -8 16 -15 10 -15 -5 0 -18 7 -28 15 -11 8
-16 15 -10 15 5 0 18 -7 28 -15z m-2304 -10 c0 -2 -10 -9 -22 -15 -22 -11 -22
-10 -4 4 21 17 26 19 26 11z m2370 -31 c0 -2 -9 0 -20 6 -11 6 -20 13 -20 16
0 2 9 0 20 -6 11 -6 20 -13 20 -16z m-2440 -9 c0 -2 -10 -9 -22 -15 -22 -11
-22 -10 -4 4 21 17 26 19 26 11z m2495 -15 c3 -6 -1 -7 -9 -4 -18 7 -21 14 -7
14 6 0 13 -4 16 -10z m91 -61 c3 -6 -5 -3 -20 6 -14 10 -26 19 -26 22 0 7 39
-17 46 -28z m-2756 -33 c0 -2 -7 -7 -16 -10 -8 -3 -12 -2 -9 4 6 10 25 14 25
6z m2846 -27 c3 -6 -5 -3 -20 6 -14 10 -26 19 -26 22 0 7 39 -17 46 -28z m35
-26 c13 -16 12 -17 -3 -4 -10 7 -18 15 -18 17 0 8 8 3 21 -13z m74 -53 c3 -6
-1 -7 -9 -4 -18 7 -21 14 -7 14 6 0 13 -4 16 -10z m55 -45 c13 -14 21 -25 18
-25 -2 0 -15 11 -28 25 -13 14 -21 25 -18 25 2 0 15 -11 28 -25z m85 -75 c21
-22 37 -40 34 -40 -3 0 -23 18 -44 40 -21 22 -37 40 -34 40 3 0 23 -18 44 -40z
m225 -233 c-3 -2 -23 17 -44 42 l-40 46 44 -42 c24 -23 42 -44 40 -46z m56
-64 c21 -26 33 -44 27 -40 -14 9 -77 87 -70 87 3 0 22 -21 43 -47z m59 -73
c10 -11 16 -20 13 -20 -3 0 -13 9 -23 20 -10 11 -16 20 -13 20 3 0 13 -9 23
-20z m64 -90 c23 -33 40 -60 38 -60 -3 0 -20 21 -39 48 -41 57 -50 72 -45 72
2 0 23 -27 46 -60z m82 -125 l10 -20 -16 20 c-9 11 -21 29 -26 40 l-10 20 16
-20 c9 -11 21 -29 26 -40z m66 -110 c21 -42 1 -19 -26 30 -13 22 -15 31 -6 20
9 -11 23 -33 32 -50z m27 -51 c3 -8 2 -12 -4 -9 -6 3 -10 10 -10 16 0 14 7 11
14 -7z m24 -49 c-3 -3 -9 2 -12 12 -6 14 -5 15 5 6 7 -7 10 -15 7 -18z m32
-55 c6 -11 8 -20 6 -20 -3 0 -10 9 -16 20 -6 11 -8 20 -6 20 3 0 10 -9 16 -20z
m24 -56 c3 -8 2 -12 -4 -9 -6 3 -10 10 -10 16 0 14 7 11 14 -7z m36 -79 c0 -5
-5 -3 -10 5 -5 8 -10 20 -10 25 0 6 5 3 10 -5 5 -8 10 -19 10 -25z m-3950
-4449 c0 -2 -8 -10 -17 -17 -16 -13 -17 -12 -4 4 13 16 21 21 21 13z"/>
</g>
</svg>
