<?xml version="1.0" encoding="UTF-8" standalone="no"?>
<!-- Created with Inkscape (http://www.inkscape.org/) -->

<svg
   width="14.168mm"
   height="14.168mm"
   viewBox="0 0 14.168 14.168"
   version="1.1"
   id="svg606"
   xml:space="preserve"
   inkscape:version="1.2.2 (b0a8486541, 2022-12-01)"
   sodipodi:docname="icon.svg"
   xmlns:inkscape="http://www.inkscape.org/namespaces/inkscape"
   xmlns:sodipodi="http://sodipodi.sourceforge.net/DTD/sodipodi-0.dtd"
   xmlns="http://www.w3.org/2000/svg"
   xmlns:svg="http://www.w3.org/2000/svg"><sodipodi:namedview
     id="namedview608"
     pagecolor="#ffffff"
     bordercolor="#666666"
     borderopacity="1.0"
     inkscape:showpageshadow="2"
     inkscape:pageopacity="0.0"
     inkscape:pagecheckerboard="0"
     inkscape:deskcolor="#d1d1d1"
     inkscape:document-units="mm"
     showgrid="false"
     inkscape:zoom="4.75722"
     inkscape:cx="13.9788"
     inkscape:cy="28.3779"
     inkscape:window-width="1920"
     inkscape:window-height="1011"
     inkscape:window-x="0"
     inkscape:window-y="32"
     inkscape:window-maximized="1"
     inkscape:current-layer="layer1" /><defs
     id="defs603"><inkscape:path-effect
       effect="simplify"
       id="path-effect2126"
       is_visible="true"
       lpeversion="1"
       steps="1"
       threshold="0.000625"
       smooth_angles="360"
       helper_size="0"
       simplify_individual_paths="false"
       simplify_just_coalesce="false" /><inkscape:path-effect
       effect="simplify"
       id="path-effect2126-5"
       is_visible="true"
       lpeversion="1"
       steps="1"
       threshold="0.000625"
       smooth_angles="360"
       helper_size="0"
       simplify_individual_paths="false"
       simplify_just_coalesce="false" /></defs><g
     inkscape:label="Layer 1"
     inkscape:groupmode="layer"
     id="layer1"
     transform="translate(-50.1946,-139.562)"><g
       id="hair"
       transform="matrix(0.264583,0,0,0.264583,75.8638,138.324)" /><g
       id="skin"
       transform="matrix(0.264583,0,0,0.264583,75.8638,138.324)" /><g
       id="skin-shadow"
       transform="matrix(0.264583,0,0,0.264583,75.8638,138.324)" /><g
       id="g4378"
       transform="translate(0.1545)"><circle
         style="fill:#fcea2b;fill-opacity:1;stroke:none;stroke-width:0.422341;stroke-dasharray:none;paint-order:stroke markers fill"
         id="path2212"
         cx="57.1241"
         cy="146.492"
         r="6.92952" /><g
         id="g2049"><g
           id="line-supplement"
           transform="matrix(0.264583,0,0,0.264583,47.53,136.94)"><path
             d="m 39.664,37.59 a 14.4676,14.4676 0 0 1 1.797,0.554 l 0.043,0.017 a 6,6 0 1 0 -0.2266,-8.2832 c -4.4892,2.0332 -9.6,0.3379 -10.5742,-0.022 a 6,6 0 1 0 -0.208,8.3047 0.8521,0.8521 0 0 0 0.088,-0.036 10.28,10.28 0 0 1 1.4286,-0.5464 c 0,0 0.4265,-5.741 3.9163,-5.741 3.4898,0 3.736,5.7529 3.736,5.7529 z M 26.3019,37.9 a 4,4 0 1 1 4,-4 4,4 0 0 1 -4,4 z m 19.3964,0 a 4,4 0 1 1 4,-4 4,4 0 0 1 -4,4 z"
             id="path953" /></g><g
           id="color-5"
           transform="matrix(0.264583,0,0,0.264583,47.53,136.94)"><g
             id="color-2"><circle
               cx="36.0001"
               cy="36"
               r="22.9999"
               fill="#fcea2b"
               id="circle956" /></g><circle
             cx="26.3384"
             cy="33.8997"
             r="5"
             fill="#92d3f5"
             id="circle959" /><circle
             cx="45.7341"
             cy="33.8997"
             r="5"
             fill="#92d3f5"
             id="circle961" /><path
             fill="#3f3f3f"
             d="m 31.874,31.1923 c 0,0 0,-7.4294 -8.1916,-7.4294 a 2.9223,2.9223 0 0 0 0.4909,1.0227 c 0,0 -4.3364,-0.4909 -5.1137,1.3091 l 0.7773,1.0228 a 2.1161,2.1161 0 0 0 -1.5546,2.2909 1.7819,1.7819 0 0 0 1.7182,1.8816 h 2.0749 c 0,0 4.3408,-5.5555 9.7986,-0.098 z"
             id="path963" /><path
             fill="#3f3f3f"
             d="m 40.7341,31.1923 c 0,0 0,-7.4294 8.1917,-7.4294 a 2.9223,2.9223 0 0 1 -0.4909,1.0227 c 0,0 4.3363,-0.4909 5.1136,1.3091 l -0.7773,1.0228 a 2.1161,2.1161 0 0 1 1.5546,2.2909 1.7819,1.7819 0 0 1 -1.7182,1.8816 h -2.0749 c 0,0 -4.3534,-5.0835 -9.7986,-0.098 z"
             id="path965" /><path
             d="m 39.664,37.59 a 14.4676,14.4676 0 0 1 1.797,0.554 l 0.043,0.017 a 6,6 0 1 0 -0.2266,-8.2832 c -4.4892,2.0332 -9.6,0.3379 -10.5742,-0.022 a 6,6 0 1 0 -0.208,8.3047 0.8521,0.8521 0 0 0 0.088,-0.036 10.28,10.28 0 0 1 1.4286,-0.5464 c 0,0 0.4265,-5.741 3.9163,-5.741 3.4898,0 3.736,5.7529 3.736,5.7529 z M 26.3019,37.9 a 4,4 0 1 1 4,-4 4,4 0 0 1 -4,4 z m 19.3964,0 a 4,4 0 1 1 4,-4 4,4 0 0 1 -4,4 z"
             id="path967" /><path
             fill="#f1b31c"
             d="m 39.9351,45.6612 a 2.5633,2.5633 0 0 1 1.8361,-0.8893 1.5136,1.5136 0 0 0 1.5488,-1.7212 3.6531,3.6531 0 0 0 -1.7786,-2.9262 6.2855,6.2855 0 0 1 -2.21,-3.89 C 38.9168,31.798 36.2171,31.5377 35.9493,31.5228 h -0.039 c -0.2453,0.013 -2.9692,0.254 -3.3858,4.7119 a 6.2855,6.2855 0 0 1 -2.21,3.89 3.6531,3.6531 0 0 0 -1.7786,2.9262 1.5136,1.5136 0 0 0 1.5491,1.7212 2.5633,2.5633 0 0 1 1.8361,0.8893 c 0,0 3.5506,5.76 7.8972,0.3655 z"
             id="path969" /><path
             fill="#3f3f3f"
             d="m 42.817,44.4015 c 0,0 5.0827,0.07 2.5335,4.3472 a 4.4929,4.4929 0 0 0 -1.8128,-0.8214 c 0,0 0.2266,2.9174 -3.5122,3.229 V 49.74 c 0,0 -0.6041,2.096 -4.0975,2.096 h -0.017 c -3.4933,0 -4.0975,-2.096 -4.0975,-2.096 v 1.4162 c -3.7388,-0.3116 -3.5122,-3.229 -3.5122,-3.229 a 4.493,4.493 0 0 0 -1.8127,0.8214 c -2.5492,-4.2769 2.5335,-4.3472 2.5335,-4.3472 l 2.5989,0.9312 A 4.3417,4.3417 0 0 0 36,48.332 4.4648,4.4648 0 0 0 40.4141,45.1966 Z"
             id="path971" /></g><g
           id="line-3"
           transform="matrix(0.264583,0,0,0.264583,47.53,136.94)"><circle
             cx="36"
             cy="36"
             r="23"
             fill="none"
             stroke="#000000"
             stroke-linecap="round"
             stroke-linejoin="round"
             stroke-width="2"
             id="circle974" /><path
             fill="none"
             stroke="#000000"
             stroke-linecap="round"
             stroke-linejoin="round"
             stroke-width="2"
             d="m 31.874,31.1923 c 0,0 0,-7.4294 -8.1916,-7.4294 a 2.9223,2.9223 0 0 0 0.4909,1.0227 c 0,0 -4.3364,-0.4909 -5.1137,1.3091 l 0.7773,1.0228 a 2.1161,2.1161 0 0 0 -1.5546,2.2909 1.7819,1.7819 0 0 0 1.7182,1.8816 h 2.0749"
             id="path976" /><path
             fill="none"
             stroke="#000000"
             stroke-linecap="round"
             stroke-linejoin="round"
             stroke-width="2"
             d="m 40.7341,31.1923 c 0,0 0,-7.4294 8.1917,-7.4294 a 2.9223,2.9223 0 0 1 -0.4909,1.0227 c 0,0 4.3363,-0.4909 5.1136,1.3091 l -0.7773,1.0228 a 2.1161,2.1161 0 0 1 1.5546,2.2909 1.7819,1.7819 0 0 1 -1.7182,1.8816 h -2.0749"
             id="path978" /><path
             fill="none"
             stroke="#000000"
             stroke-linecap="round"
             stroke-linejoin="round"
             stroke-width="2"
             d="m 31.9209,45.6612 a 2.5633,2.5633 0 0 0 -1.8361,-0.8893 1.5136,1.5136 0 0 1 -1.5491,-1.7212 3.6531,3.6531 0 0 1 1.7786,-2.9262 6.2855,6.2855 0 0 0 2.21,-3.89 c 0.4166,-4.4579 3.14,-4.6992 3.3858,-4.7119 h 0.039 c 0.2678,0.015 2.9675,0.2752 3.3821,4.7117 a 6.2855,6.2855 0 0 0 2.21,3.89 3.6531,3.6531 0 0 1 1.7787,2.9264 1.5136,1.5136 0 0 1 -1.5491,1.7212 2.5633,2.5633 0 0 0 -1.8361,0.8893"
             id="path980" /><path
             fill="none"
             stroke="#000000"
             stroke-linecap="round"
             stroke-linejoin="round"
             stroke-width="2"
             d="m 31.6627,43.3662 c 0,0 -0.7642,4.7622 4.2653,4.7622 5.0295,0 4.2263,-4.7622 4.2263,-4.7622"
             id="path982" /><path
             fill="none"
             stroke="#000000"
             stroke-linecap="round"
             stroke-linejoin="round"
             stroke-width="2"
             d="m 42.817,44.4015 c 0,0 5.0827,0.07 2.5335,4.3472 a 4.4929,4.4929 0 0 0 -1.8128,-0.8214 c 0,0 0.2266,2.9174 -3.5122,3.229 V 49.74 c 0,0 -0.6041,2.096 -4.0975,2.096 h -0.017 c -3.4933,0 -4.0975,-2.096 -4.0975,-2.096 v 1.4162 c -3.7388,-0.3116 -3.5122,-3.229 -3.5122,-3.229 a 4.493,4.493 0 0 0 -1.8127,0.8214 c -2.5492,-4.2769 2.5335,-4.3472 2.5335,-4.3472"
             id="path984" /></g></g><g
         id="g2028"
         transform="matrix(1.09652,0,0,1.06216,-16.1563,-6.7604)"><g
           id="g2016"><g
             id="g2059"><path
               id="path900"
               style="fill:#ffffff;stroke-width:0.264583"
               d="m 66.9161,138.733 c -0.041,0 -0.043,0.03 -0.04,0.138 v 12.228 a 6.63066,6.84515 0 0 0 2.4105,-0.514 c 0.7361,-3.87 0.4929,-7.888 -0.4288,-11.635 h 0.01 c -0.4441,-0.135 -1.3885,-0.203 -1.8526,-0.203 h -0.015 c -0.039,-0.01 -0.066,-0.02 -0.085,-0.02 z" /><path
               id="path902"
               style="fill:#cccccc;stroke-width:0.264583"
               d="m 68.3809,138.952 c 0.9371,3.81 1.1731,7.899 0.3906,11.827 a 6.63066,6.84515 0 0 0 1.1665,-0.51 c -0.01,-0.02 -0.01,-0.05 -0.011,-0.07 l -0.018,-1.308 c 0,-0.436 0.3708,-0.844 0.641,-1.142 0.038,-0.04 0.075,-0.08 0.1074,-0.12 1.8656,-2.167 1.7634,-5.402 -0.2356,-7.447 v 0 c -0.5681,-0.572 -1.2683,-0.994 -2.0387,-1.23 z" /><path
               fill="#3f3f3f"
               d="m 69.3173,144.194 c -0.5742,0 -1.0396,0.466 -1.0396,1.04 0,0.574 0.4654,1.04 1.0396,1.04 0.5742,0 1.0397,-0.466 1.0397,-1.04 0,-0.574 -0.4655,-1.04 -1.0397,-1.04 z"
               id="path906"
               style="stroke-width:0.231031" /><path
               id="line918"
               style="fill:none;stroke:#000000;stroke-width:0.529166;stroke-linecap:round;stroke-linejoin:round"
               d="m 68.9927,149.45 v 1.124"
               sodipodi:nodetypes="cc" /><path
               id="line920"
               style="fill:none;stroke:#000000;stroke-width:0.529166;stroke-linecap:round;stroke-linejoin:round"
               d="m 67.8102,149.732 v 1.06"
               sodipodi:nodetypes="cc" /><circle
               cx="69.3176"
               cy="145.223"
               r="1.15515"
               fill="none"
               stroke="#000000"
               stroke-miterlimit="10"
               stroke-width="0.462062"
               id="circle926" /><path
               id="polyline922"
               style="fill:none;stroke:#000000;stroke-width:0.529166;stroke-linecap:round;stroke-linejoin:round"
               d="m 66.9576,146.831 0.9273,1.548"
               sodipodi:nodetypes="cc" /></g><path
             fill="none"
             stroke="#000000"
             stroke-linecap="round"
             stroke-linejoin="round"
             stroke-width="0.529166"
             d="m 70.1904,150.183 -0.018,-1.308 c 0,-0.383 0.4363,-0.803 0.6827,-1.085 0.9087,-1.044 1.4063,-2.383 1.3999,-3.768 0,-3.069 -2.3532,-5.558 -5.2536,-5.551 -0.3488,0 -0.6966,0.04 -1.0382,0.107"
             id="path912"
             sodipodi:nodetypes="ccscsc" /></g></g><path
         style="fill:none;stroke:#000000;stroke-width:0.468;stroke-linecap:butt;stroke-linejoin:miter;stroke-dasharray:none;stroke-opacity:1"
         d="m 57.2204,140.378 c -0.033,4.146 -0.065,8.291 -0.098,12.437"
         id="path2124"
         inkscape:path-effect="#path-effect2126-5"
         inkscape:original-d="m 57.2204,140.378 -0.098,12.437"
         sodipodi:nodetypes="cc" /></g></g></svg>
