<?xml version="1.0" encoding="UTF-8" standalone="no"?>
<svg
   id="emoji"
   viewBox="0 0 50.453 50.453"
   version="1.1"
   sodipodi:docname="1F480(2).svg"
   width="50.453"
   height="50.453"
   inkscape:version="1.2.2 (b0a8486541, 2022-12-01)"
   xmlns:inkscape="http://www.inkscape.org/namespaces/inkscape"
   xmlns:sodipodi="http://sodipodi.sourceforge.net/DTD/sodipodi-0.dtd"
   xmlns="http://www.w3.org/2000/svg"
   xmlns:svg="http://www.w3.org/2000/svg">
  <defs
     id="defs34" />
  <sodipodi:namedview
     id="namedview32"
     pagecolor="#ffffff"
     bordercolor="#666666"
     borderopacity="1.0"
     inkscape:showpageshadow="2"
     inkscape:pageopacity="0.0"
     inkscape:pagecheckerboard="0"
     inkscape:deskcolor="#d1d1d1"
     showgrid="false"
     inkscape:zoom="9.27096"
     inkscape:cx="14.2919"
     inkscape:cy="13.2672"
     inkscape:window-width="1920"
     inkscape:window-height="1011"
     inkscape:window-x="0"
     inkscape:window-y="32"
     inkscape:window-maximized="1"
     inkscape:current-layer="emoji" />
  <g
     id="hair"
     transform="translate(-15.1744,-11.395)" />
  <g
     id="skin"
     transform="translate(-15.1744,-11.395)" />
  <g
     id="skin-shadow"
     transform="translate(-15.1744,-11.395)" />
  <g
     id="g277"
     transform="translate(4.40083)">
    <g
       id="color"
       transform="translate(-15.1744,-11.395)">
      <path
         fill="#ffffff"
         d="m 41.1835,14.216 c -1.6784,-0.5099 -3.4229,-0.7694 -5.177,-0.77 h -0.036 c -1.2518,0 -2.5,0.1334 -3.726,0.386 -4.3415,0.9348 -8.1984,3.4083 -10.859,6.964 -2.0244,2.6542 -3.3639,5.7662 -3.9,9.061 -1.0764,6.1694 0.6871,12.4953 4.8,17.218 l 0.133,0.149 c 1.055,1.19 2.5,2.82 2.5,4.554 l -0.022,4.988 c 0,0.5523 -0.4477,1 -1,1 v 0 c 2.2224,1.1344 4.5781,1.9863 7.012,2.536 3.8115,0.8585 7.7771,0.7502 11.536,-0.315 3.215,-15.177 2.366,-31.029 -1.261,-45.771 z"
         id="path2" />
      <path
         fill="#d0cfce"
         d="m 48.8895,18.863 c -2.1471,-2.1598 -4.794,-3.7563 -7.706,-4.648 3.627,14.742 4.476,30.595 1.258,45.766 1.9461,-0.5441 3.8246,-1.3059 5.6,-2.271 -0.5501,0 -1.0009,-0.436 -1.014,-0.986 l -0.069,-4.943 c 0,-1.65 1.4,-3.191 2.421,-4.317 0.145,-0.159 0.283,-0.311 0.407,-0.453 7.0513,-8.1923 6.6643,-20.4171 -0.891,-28.147 z"
         id="path4" />
      <path
         fill="#3f3f3f"
         d="m 27.8635,36.364 c -2.4853,0 -4.5,2.0147 -4.5,4.5 0,2.4853 2.0147,4.5 4.5,4.5 2.4853,0 4.5,-2.0147 4.5,-4.5 0,-2.4853 -2.0147,-4.5 -4.5,-4.5 z"
         id="path6" />
      <path
         fill="#3f3f3f"
         d="m 44.2115,36.364 c -2.4853,0 -4.5,2.0147 -4.5,4.5 0,2.4853 2.0147,4.5 4.5,4.5 2.4853,0 4.5,-2.0147 4.5,-4.5 0,-2.4853 -2.0147,-4.5 -4.5,-4.5 z"
         id="path8" />
    </g>
    <g
       id="line"
       transform="translate(-15.1744,-11.395)">
      <path
         fill="none"
         stroke="#000000"
         stroke-linecap="round"
         stroke-linejoin="round"
         stroke-width="2"
         d="m 48.0235,56.664 -0.069,-4.944 c 0,-1.45 1.649,-3.035 2.58,-4.1 3.4344,-3.9474 5.3151,-9.0097 5.291,-14.242 0,-11.6 -8.894,-21.006 -19.856,-20.983 -1.3183,0 -2.6329,0.1405 -3.924,0.407 -7.89,1.618 -14.177,8.457 -15.548,16.842 -1.1269,6.4665 0.7263,13.0961 5.043,18.041 0.917,1.037 2.382,2.62 2.382,4.04 l -0.022,4.983"
         id="path14" />
      <line
         x1="27.8645"
         x2="27.8645"
         y1="55.002"
         y2="59.782"
         fill="none"
         stroke="#000000"
         stroke-linecap="round"
         stroke-linejoin="round"
         stroke-width="2"
         id="line16" />
      <line
         x1="33.5785"
         x2="33.5785"
         y1="56.067"
         y2="60.848"
         fill="none"
         stroke="#000000"
         stroke-linecap="round"
         stroke-linejoin="round"
         stroke-width="2"
         id="line18" />
      <line
         x1="44.2125"
         x2="44.2125"
         y1="55.002"
         y2="59.782"
         fill="none"
         stroke="#000000"
         stroke-linecap="round"
         stroke-linejoin="round"
         stroke-width="2"
         id="line20" />
      <line
         x1="39.0275"
         x2="39.0275"
         y1="56.067"
         y2="60.848"
         fill="none"
         stroke="#000000"
         stroke-linecap="round"
         stroke-linejoin="round"
         stroke-width="2"
         id="line22" />
      <polyline
         fill="none"
         stroke="#000000"
         stroke-linecap="round"
         stroke-linejoin="round"
         stroke-width="2"
         points="33.0365,52.209 35.9685,46.36 39.4735,52.209"
         id="polyline24" />
      <circle
         cx="27.8645"
         cy="40.817"
         r="5"
         fill="none"
         stroke="#000000"
         stroke-miterlimit="10"
         stroke-width="2"
         id="circle26" />
      <circle
         cx="44.2125"
         cy="40.817"
         r="5"
         fill="none"
         stroke="#000000"
         stroke-miterlimit="10"
         stroke-width="2"
         id="circle28" />
    </g>
  </g>
</svg>
